<?xml version="1.0" encoding="utf-8"?>
<!-- Generator: Adobe Illustrator 22.0.1, SVG Export Plug-In . SVG Version: 6.00 Build 0)  -->
<svg version="1.1" id="Capa_1" xmlns="http://www.w3.org/2000/svg" xmlns:xlink="http://www.w3.org/1999/xlink" x="0px" y="0px"
	 viewBox="0 0 314.4 136.3" style="enable-background:new 0 0 314.4 136.3;" xml:space="preserve">
<path style="fill=:#03fc7f;" d="M237.3,42.4c0,0.2,0,0.4,0,0.7c0,0.4,0,0.7,0.1,1.1c0.1,0.4,0.3,0.8,0.5,1.1c0.4,0.5,0.8,0.7,1.3,0.9c0.1,0,0.2,0.1,0.3,0.1
	c0.2,0,0.5,0.1,0.8,0.1c0.5,0,0.9-0.2,1.4-0.4c0.5-0.3,0.9-0.7,1.2-1.1c0.3-0.4,0.4-0.9,0.5-1.4c0.1-0.5,0-1-0.1-1.5
	c-0.1-0.3-0.2-0.5-0.3-0.8c-0.1-0.1-0.1-0.3-0.2-0.4c-0.3-0.5-0.7-0.8-1.1-1.2c-0.5-0.3-1.1-0.5-1.6-0.5c-0.3,0-0.6,0-0.9,0.1
	c-0.3,0.1-0.6,0.2-0.9,0.4c-0.4,0.2-0.6,0.6-0.8,1c-0.1,0.4-0.1,0.9,0.2,1.3c0.5,0.8,1.5,1,2.3,0.6c0.1,0,0.2-0.1,0.2-0.1
	c-0.1,0.1-0.3,0.1-0.4,0.2c0.2-0.1,0.3-0.1,0.5-0.1l-0.4,0.1c0.1,0,0.3,0,0.4,0l-0.4-0.1c0.1,0,0.3,0.1,0.4,0.1l-0.4-0.2
	c0.1,0.1,0.2,0.1,0.4,0.2c-0.1-0.1-0.2-0.2-0.3-0.3c0.1,0.1,0.3,0.2,0.4,0.4c-0.1-0.1-0.2-0.2-0.3-0.3c0.1,0.2,0.2,0.4,0.3,0.5
	c-0.1-0.1-0.1-0.3-0.2-0.4c0.1,0.2,0.1,0.4,0.2,0.6l-0.1-0.4c0,0.2,0,0.4,0,0.6l0.1-0.4c0,0.2-0.1,0.3-0.1,0.5
	c0.1-0.1,0.1-0.3,0.2-0.4c-0.1,0.1-0.1,0.2-0.2,0.3c0.1-0.1,0.2-0.2,0.3-0.3c-0.1,0.1-0.2,0.2-0.3,0.3c0.1-0.1,0.2-0.2,0.3-0.3
	c-0.1,0.1-0.3,0.2-0.4,0.2c0.1-0.1,0.3-0.1,0.4-0.2c-0.1,0.1-0.3,0.1-0.4,0.1l0.4-0.1c-0.1,0-0.2,0-0.4,0l0.4,0.1
	c-0.1,0-0.2,0-0.3-0.1l0.4,0.2c-0.1,0-0.2-0.1-0.3-0.2c0.1,0.1,0.2,0.2,0.3,0.3c-0.1-0.1-0.1-0.1-0.2-0.2c0.1,0.1,0.2,0.2,0.3,0.3
	c0-0.1-0.1-0.1-0.1-0.2c0.1,0.1,0.1,0.3,0.2,0.4c0-0.1-0.1-0.2-0.1-0.4c0,0.1,0,0.3,0.1,0.4c0-0.4,0-0.8,0-1.3
	c0-0.4-0.2-0.9-0.5-1.2c-0.3-0.3-0.8-0.5-1.2-0.5c-0.4,0-0.9,0.2-1.2,0.5C237.5,41.5,237.3,41.9,237.3,42.4"/>
<path style="fill=:#03fc7f;" d="M38.3,37.3c2.6,8,4.3,16.3,4.9,24.7c0.6,8,0.6,16.4-0.9,24.3c-0.6,3.2-2,6.8-5.4,7.7c-3.1,0.8-4.9-1.6-4.9-4.4
	c0-6,5.8-10.2,10.7-12.3c7.2-3.1,15.4-3.9,23.1-5.1c2.1-0.3,1.2-3.5-0.9-3.2c-7.8,1.3-16,2.1-23.4,5.2c-6.1,2.6-12.3,7.6-12.9,14.7
	c-0.3,3.3,1.1,6.8,4.4,8.1c3.3,1.4,7.3-0.3,9.5-2.9c2.7-3.4,3.2-7.9,3.7-12.1c0.5-4.7,0.7-9.4,0.6-14.1c-0.2-10.7-2-21.3-5.3-31.5
	C40.9,34.4,37.7,35.3,38.3,37.3"/>
<path style="fill=:#03fc7f;" d="M68.4,47.7C67.5,44,63.2,43.4,60,44c-3.9,0.7-6.6,3.7-7.5,7.5c-0.9,3.9-0.6,8.8,1.8,12.2c1.1,1.6,2.8,3,4.8,3
	c2.4,0.1,4.2-1.5,5.4-3.4c3.1-4.6,4.4-10.5,4.3-16l-3.1,0.8c2.4,5,0.2,13.5,6.9,15.6c2,0.6,2.9-2.5,0.9-3.2c-1-0.3-1.6-0.9-2-1.9
	c-0.5-1-0.7-2.5-0.9-3.7c-0.5-2.9-0.6-5.8-1.9-8.5c-0.7-1.5-3.1-0.7-3.1,0.8c0.1,3.9-0.6,7.8-2.2,11.4c-0.9,2.1-3.1,6.6-5.7,3.8
	c-2.1-2.2-2.3-5.6-2.1-8.5c0.2-2.7,1.4-5.5,4-6.5c1.2-0.4,2.6-0.6,3.8-0.4c0.6,0.1,1,0.2,1.4,0.5c0.3,0.2,0.4,0.5,0.6,0.9
	C65.7,50.6,68.8,49.7,68.4,47.7"/>
<path style="fill=:#03fc7f;" d="M114.7,31.7c0.9,16.5,1.5,33.1,2.4,49.6c0.1,2.1,3.3,2.1,3.3,0c0-5.5,0.4-11.2,1.5-16.6c0.3-1.3,2.4-10.1,4.9-7.3
	c1.3,1.5,1.6,3.9,1.8,5.8c0.2,2.1,0.3,4.2,0.8,6.3c1,4.6,5,7.9,9.8,6.6c5.4-1.4,7.7-6.9,9.2-11.7c0.9-2.8,1.6-5.9,1-8.8
	c-0.5-2.3-1.9-4.5-4.4-4.8c-2.7-0.3-4.4,1.6-4.7,4.1c-0.3,3.2-0.1,6.4,0.5,9.5c0.5,2.8,1.3,5.6,2.4,8.2c1,2.4,2.3,4.9,4.3,6.6
	c4.6,3.7,9.5,0.1,12.4-3.8c3.4-4.6,6.2-9.9,8.2-15.2c2-5.4,2.7-11.1,1.3-16.7c-0.9-3.6-4.5-13.2-9.6-9c-2,1.6-3.1,4.5-3.6,7
	c-0.6,3-0.4,6.1-0.2,9.1c0.2,3.4,0.6,6.7,0.7,10.1c0.1,3.4,0.2,6.9,0.4,10.3c0.4,6.5,1.1,12.9,1.6,19.4c0.4,5,0.5,11.6,5,14.8
	c1.9,1.3,4.3,1.3,6.1-0.1c2.1-1.7,3-5.1,3.5-7.7c1.8-9.1,0.6-22.3-8.4-27.5c-1.9-1.1-4-1.6-6.2-1.5v3.3c2.7-0.1,5.4,0.1,8.1-0.3
	c2.6-0.4,5.2-1,7.7-2c4-1.6,7.7-3.9,10.3-7.4c2.7-3.6,3.6-8.4,3.9-12.8c0.4-4.8-0.1-9.6-0.6-14.4c-0.2-2.1-3.3-2.2-3.3,0
	c0,5.8,0.3,11.6,0.8,17.3c0.3,3.5,0.2,7,0.4,10.5c0.2,3.4,0.7,7.2,2.7,10.1c2.4,3.4,6.8,5.2,10.6,2.9c3.9-2.4,5-7.4,5.4-11.7
	c0.2-2.1-3.1-2.1-3.3,0c-0.2,2.9-0.9,6.8-3.5,8.6c-3,2.2-6.1-0.3-7.3-3.1c-1.2-2.7-1.4-5.8-1.5-8.7c-0.1-3.1-0.1-6.1-0.4-9.1
	c-0.4-5.6-0.7-11.2-0.8-16.8h-3.3c0.5,4.3,0.9,8.7,0.7,13c-0.2,4-0.8,8.4-3.1,11.8c-2.1,3.2-5.7,5.4-9.2,6.7
	c-2.2,0.8-4.5,1.4-6.8,1.8c-2.6,0.4-5.1,0.2-7.7,0.3c-2.1,0.1-2.1,3.4,0,3.3c8.8-0.4,11.8,10.8,12,17.6c0.1,2.6-0.1,5.1-0.6,7.6
	c-0.4,1.6-1,5.7-3.1,5.9c-1.6,0.2-3-2-3.5-3.2c-0.9-2.2-1.1-4.9-1.3-7.3c-0.5-5.6-1-11.2-1.5-16.8c-0.4-5.8-0.5-11.6-0.9-17.5
	c-0.4-5.2-1.5-10.9-0.4-16.1c0.2-1,1.7-6,3.2-4.9c0.8,0.6,1.4,1.9,1.8,2.8c0.6,1.1,1,2.3,1.4,3.5c3,10.2-2.2,19.9-7.5,28.3
	c-1.8,2.8-5.5,8.1-9.2,4.9c-1.7-1.5-2.7-3.9-3.5-6c-0.9-2.3-1.5-4.8-1.9-7.2c-0.4-2.6-0.8-5.7-0.3-8.3c0.1-0.7,0.7-1.2,1.4-0.8
	c0.8,0.4,1.1,1.6,1.2,2.4c0.4,2.5-0.5,5.1-1.2,7.5c-0.6,2.1-1.4,4.2-2.7,5.9c-1.4,1.8-3.5,3.3-5.8,3c-1.7-0.2-2.9-1.4-3.5-2.9
	c-1.3-3.4-0.8-7.2-1.7-10.7c-0.5-1.8-1.3-3.7-2.7-4.9c-1.9-1.5-4.2-1.2-5.9,0.4c-2.2,2-3.1,5.1-3.7,7.9c-1.3,5.6-1.6,11.5-1.8,17.3
	c0,0.4,0,0.8,0,1.2h3.3c-0.9-16.5-1.5-33.1-2.4-49.6C117.9,29.6,114.6,29.6,114.7,31.7"/>
<path style="fill=:#03fc7f;" d="M200.7,54.4c-0.4,4.6,0.1,9.2,1.4,13.6c1,3.3,2.6,7.4,6.5,7.9c3.9,0.5,7.1-2.9,8.5-6.2c1.4-3,1.7-6.3,1.1-9.5
	c-1-6.1-6.6-13.2-13.5-11.8c-3.7,0.7-5.3,4.6-4.2,8c1.2,3.6,4.5,6.3,8.2,7.2c3.9,1,8-0.1,10.6-3.3c2.1-2.6,2.8-5.9,3.6-9
	c-0.4,0.4-0.8,0.8-1.2,1.2c1.5-0.2,3.1-0.5,4.6-0.7c-0.7-0.7-1.4-1.4-2-2c-0.7,4.7-0.6,9.5,0.3,14.2c0.7,3.4,1.9,8.1,5.6,9.4
	c3.6,1.3,6.6-2,7.9-5c1.3-2.9,2-6,2.4-9.1c0.3-2.1,0.6-4.3,0.7-6.4h-3.3c-0.1,4,0.4,8.2,1.6,12c0.8,2.4,1.9,4.9,4.1,6.3
	c3.2,2.1,7.6,1.3,10.6-0.8c4-2.9,4.8-7.5,5.9-11.9c0.5-2.1-2.7-2.9-3.2-0.9c-1,4.2-1.6,9-6.1,11c-1.7,0.7-3.8,1-5.4-0.1
	c-1-0.7-1.6-1.7-2.1-2.7c-1.8-3.8-2.1-8.6-2.1-12.8c0-2.1-3.2-2.1-3.3,0c-0.1,1.8-0.3,3.6-0.6,5.4c-0.5,3.1-1,6.5-2.5,9.2
	c-0.7,1.2-2,3.4-3.7,2.7c-1.6-0.7-2.3-2.9-2.7-4.5c-1.4-4.9-1.7-10.1-1-15.1c0.2-1.3-0.7-2.2-2-2c-1.5,0.2-3.1,0.5-4.6,0.7
	c-0.5,0.1-1,0.6-1.2,1.2c-1.1,4-2,9.2-6.8,10.1c-2.8,0.5-5.8-0.6-7.7-2.6c-1.4-1.5-3.1-5.1-0.3-6.2c2.2-0.8,4.7,0.5,6.3,2
	c1.7,1.6,2.9,3.7,3.5,6c0.6,2.2,0.6,4.6,0,6.8c-0.6,2.4-2.2,5.4-4.8,6.1c-3.3,0.9-4.5-4.4-5.1-6.7c-1-3.8-1.2-7.7-0.9-11.5
	C204.2,52.3,200.9,52.3,200.7,54.4"/>
<path style="fill=:#03fc7f;" d="M276.3,51.3c-0.6-4.2-5.4-6-9-5.9c-4.9,0.1-8.4,3.5-9.6,8.2c-1.1,4.6-0.4,10,2.2,13.9c1.2,1.8,2.8,3.5,5,4
	c2.4,0.5,4.7-0.6,6.3-2.3c2.2-2.5,3.2-6,4-9.1c0.9-3.5,1.3-7.1,1.2-10.8c-1.1,0.1-2.2,0.3-3.2,0.4c0.8,3.9,0.5,7.9,1.6,11.8
	c0.8,3.1,2.2,6.4,4.9,8.3c2.6,1.9,5.7,1.1,7.4-1.6c1.3-2.2,1.6-4.8,2-7.3c0.3-2.1-2.9-3-3.2-0.9c-0.3,1.9-0.5,3.8-1.2,5.6
	c-0.3,0.7-0.7,1.6-1.4,1.8c-1.1,0.4-2.3-0.8-2.9-1.7c-3.7-4.9-2.8-11.4-4-17.1c-0.4-1.8-3.3-1.4-3.2,0.4c0.2,5-0.8,9.9-2.5,14.5
	c-0.7,1.7-1.8,3.9-3.7,4.5c-1.4,0.4-2.6-0.7-3.5-1.7c-2.2-2.7-2.9-6.4-2.7-9.8c0.2-3.4,1.7-7.2,5.4-7.9c2.6-0.5,6.8,0.2,7.2,3.3
	c0.1,0.9,1.2,1.4,2,1.2C276.2,53.1,276.5,52.2,276.3,51.3"/>
<path style="fill=:#03fc7f;" d="M173,47c2.8,5,9.3,5.5,14.2,3.5c5.9-2.4,10.7-8.4,17.4-8.5c2.1,0,2.1-3.3,0-3.3c-6.2,0.1-10.7,4.3-15.7,7.3
	c-3.7,2.2-10.2,4.2-13-0.6C174.8,43.5,171.9,45.2,173,47"/>
<path style="fill=:#03fc7f;" d="M91.4,42.6c-2,4.7,0.4,10.3,5,12.3c5.3,2.3,11.1-1.1,13.1-6.2c1.5-4.1,0.4-8.8-1.6-12.5c-2-3.8-5.3-7.4-9.6-8.4
	c-5.3-1.3-9.9,1.9-12.2,6.5c-2.8,5.6-4.2,12.1-4.6,18.3c-0.4,6.3,0.3,12.7,2.4,18.6c2,5.5,5.5,12.1,12,12.6
	c7.3,0.6,12.1-6.8,15-12.4c3.5-6.8,6.3-14.2,7.6-21.8c0.3-2.1-2.8-3-3.2-0.9c-1,5.8-2.9,11.4-5.3,16.7c-2,4.7-4.5,10.2-8.7,13.3
	c-1.9,1.4-4.3,2.2-6.6,1.4c-2.4-0.8-4.2-2.9-5.4-5c-2.7-4.6-4.1-10-4.5-15.3c-0.5-5.4,0-10.8,1.3-16.1c1.1-4.2,2.6-10.5,6.9-12.5
	c6.9-3.2,12.9,5.8,13.7,11.6c0.6,4.2-1.7,8.9-6.3,9.3c-4.8,0.4-7.6-4.8-5.9-8.8c0.3-0.8-0.4-1.8-1.2-2
	C92.5,41.2,91.8,41.8,91.4,42.6"/>
<polygon points="192,100.6 191,100.6 191.8,94.9 189.1,100.1 187.8,95 187,100.6 185.9,100.6 187.2,91.9 188.1,91.9 189.5,97.2 
	192.3,91.9 193.3,91.9 "/>
<polygon points="196.2,100.6 195.2,100.6 196.4,91.9 197.4,91.9 "/>
<polygon points="208.3,100.6 207.3,100.6 207.6,98.3 205.5,98.3 205.2,100.6 204.2,100.6 205.4,91.9 206.4,91.9 205.7,97.2 
	207.7,97.2 208.5,91.9 209.5,91.9 "/>
<polygon points="212.5,100.6 211.5,100.6 212.7,91.9 213.7,91.9 "/>
<path style="fill=:#03fc7f;" d="M220.5,98.4c0,0.3-0.1,0.6-0.3,0.9c-0.2,0.3-0.4,0.5-0.6,0.7c-0.2,0.2-0.5,0.4-0.8,0.5c-0.3,0.1-0.6,0.2-0.9,0.2
	c-0.3,0-0.6-0.1-0.9-0.2c-0.3-0.1-0.5-0.3-0.6-0.5c-0.2-0.2-0.3-0.4-0.4-0.7c-0.1-0.3-0.1-0.6-0.1-0.9l0.1-0.7h1l-0.1,0.7
	c0,0.2,0,0.3,0,0.5c0,0.1,0.1,0.3,0.2,0.4c0.1,0.1,0.2,0.2,0.4,0.3c0.1,0.1,0.3,0.1,0.5,0.1c0.2,0,0.3,0,0.5-0.1
	c0.2-0.1,0.3-0.1,0.4-0.3c0.1-0.1,0.2-0.2,0.3-0.4c0.1-0.1,0.1-0.3,0.2-0.5l0.1-0.4c0-0.3,0-0.6-0.2-0.9c-0.2-0.2-0.5-0.4-0.8-0.4
	c-0.3,0-0.6-0.1-0.9-0.2c-0.3-0.1-0.5-0.3-0.6-0.5c-0.2-0.2-0.3-0.4-0.4-0.7c-0.1-0.3-0.1-0.6-0.1-0.9l0.1-0.4
	c0-0.3,0.1-0.6,0.3-0.9c0.2-0.3,0.4-0.5,0.6-0.7c0.2-0.2,0.5-0.4,0.8-0.5c0.3-0.1,0.6-0.2,0.9-0.2c0.3,0,0.6,0.1,0.9,0.2
	c0.3,0.1,0.5,0.3,0.7,0.5c0.2,0.2,0.3,0.4,0.4,0.7c0.1,0.3,0.1,0.6,0.1,0.9l-0.1,0.7h-1.1l0.1-0.7c0-0.3,0-0.6-0.2-0.9
	c-0.2-0.2-0.5-0.4-0.8-0.4c-0.2,0-0.3,0-0.5,0.1c-0.2,0.1-0.3,0.2-0.4,0.3c-0.1,0.1-0.2,0.2-0.3,0.4c-0.1,0.2-0.1,0.3-0.2,0.5
	l-0.1,0.4c0,0.2,0,0.3,0,0.5c0,0.1,0.1,0.3,0.2,0.4c0.1,0.1,0.2,0.2,0.4,0.3c0.1,0.1,0.3,0.1,0.5,0.1c0.3,0,0.6,0.1,0.9,0.2
	c0.3,0.1,0.5,0.3,0.7,0.5c0.2,0.2,0.3,0.4,0.4,0.7c0.1,0.3,0.1,0.6,0.1,0.9L220.5,98.4z"/>
<polygon points="228.1,92.9 226.7,92.9 225.6,100.6 224.6,100.6 225.7,92.9 224.3,92.9 224.4,91.9 228.2,91.9 "/>
<path style="fill=:#03fc7f;" d="M234.8,98.4c0,0.3-0.1,0.6-0.3,0.9c-0.2,0.3-0.4,0.5-0.6,0.7c-0.2,0.2-0.5,0.4-0.8,0.5c-0.3,0.1-0.6,0.2-0.9,0.2
	c-0.3,0-0.6-0.1-0.9-0.2c-0.3-0.1-0.5-0.3-0.6-0.5c-0.2-0.2-0.3-0.4-0.4-0.7c-0.1-0.3-0.1-0.6-0.1-0.9l0.6-4.2
	c0-0.3,0.1-0.6,0.3-0.9c0.2-0.3,0.4-0.5,0.6-0.7c0.2-0.2,0.5-0.4,0.8-0.5c0.3-0.1,0.6-0.2,0.9-0.2c0.3,0,0.6,0.1,0.9,0.2
	c0.3,0.1,0.5,0.3,0.7,0.5c0.2,0.2,0.3,0.4,0.4,0.7c0.1,0.3,0.1,0.6,0.1,0.9L234.8,98.4z M234.4,94.1c0-0.3,0-0.6-0.2-0.9
	c-0.2-0.2-0.5-0.4-0.8-0.4c-0.2,0-0.3,0-0.5,0.1c-0.2,0.1-0.3,0.2-0.4,0.3c-0.1,0.1-0.2,0.2-0.3,0.4c-0.1,0.2-0.1,0.3-0.2,0.5
	l-0.6,4.2c0,0.2,0,0.3,0,0.5c0,0.1,0.1,0.3,0.2,0.4c0.1,0.1,0.2,0.2,0.4,0.3c0.1,0.1,0.3,0.1,0.5,0.1c0.2,0,0.3,0,0.5-0.1
	c0.2-0.1,0.3-0.1,0.4-0.3c0.1-0.1,0.2-0.2,0.3-0.4c0.1-0.1,0.1-0.3,0.2-0.5L234.4,94.1z"/>
<path style="fill=:#03fc7f;" d="M239,98.3l-0.3,2.3h-1l1.2-8.8h1.9c0.3,0,0.6,0.1,0.8,0.2c0.3,0.1,0.5,0.3,0.6,0.5c0.2,0.2,0.3,0.4,0.4,0.7
	c0.1,0.3,0.1,0.6,0.1,0.9l-0.3,1.9c-0.1,0.4-0.2,0.8-0.5,1.2c-0.3,0.4-0.6,0.6-1,0.8l1.1,2.6h-1.2l-1-2.3H239z M239.2,97.2h0.8
	c0.2,0,0.3,0,0.5-0.1c0.2-0.1,0.3-0.1,0.4-0.3c0.1-0.1,0.2-0.2,0.3-0.4c0.1-0.1,0.1-0.3,0.2-0.5l0.3-1.9c0-0.2,0-0.3,0-0.5
	c0-0.2-0.1-0.3-0.2-0.4c-0.1-0.1-0.2-0.2-0.4-0.3c-0.1-0.1-0.3-0.1-0.5-0.1h-0.8L239.2,97.2z"/>
<polygon points="246,100.6 245,100.6 246.2,91.9 247.2,91.9 "/>
<path style="fill=:#03fc7f;" d="M252.6,91.9c0.3,0,0.6,0.1,0.9,0.2c0.3,0.1,0.5,0.3,0.7,0.5c0.2,0.2,0.3,0.4,0.4,0.7c0.1,0.3,0.1,0.6,0.1,0.9l-0.9,6.5h-1.1
	l0.3-2.3h-2.4l-0.3,2.3h-1l0.9-6.5c0-0.3,0.1-0.6,0.3-0.9c0.2-0.3,0.4-0.5,0.6-0.7c0.2-0.2,0.5-0.4,0.8-0.5
	C252,91.9,252.3,91.9,252.6,91.9 M250.7,97.3h2.4l0.4-3.1c0-0.3,0-0.6-0.2-0.9c-0.2-0.2-0.5-0.4-0.8-0.4c-0.2,0-0.3,0-0.5,0.1
	c-0.2,0.1-0.3,0.2-0.4,0.3c-0.1,0.1-0.2,0.2-0.3,0.4c-0.1,0.2-0.1,0.3-0.2,0.5L250.7,97.3z"/>
<polygon points="91.5,100.6 90.4,100.6 91.2,94.9 88.5,100.1 87.2,95 86.4,100.6 85.4,100.6 86.6,91.9 87.6,91.9 88.9,97.2 
	91.7,91.9 92.7,91.9 "/>
<polygon points="95.6,100.6 94.6,100.6 95.8,91.9 96.8,91.9 "/>
<path style="fill=:#03fc7f;" d="M108.3,98.4c0,0.3-0.1,0.6-0.3,0.9c-0.2,0.3-0.4,0.5-0.6,0.7c-0.2,0.2-0.5,0.4-0.8,0.5c-0.3,0.1-0.6,0.2-0.9,0.2
	c-0.3,0-0.6-0.1-0.9-0.2c-0.3-0.1-0.5-0.3-0.6-0.5c-0.2-0.2-0.3-0.4-0.4-0.7c-0.1-0.3-0.1-0.6-0.1-0.9l0.6-4.2
	c0-0.3,0.1-0.6,0.3-0.9c0.2-0.3,0.3-0.5,0.6-0.7c0.2-0.2,0.5-0.4,0.8-0.5c0.3-0.1,0.6-0.2,0.9-0.2c0.3,0,0.6,0.1,0.9,0.2
	c0.3,0.1,0.5,0.3,0.6,0.5c0.2,0.2,0.3,0.4,0.4,0.7c0.1,0.3,0.1,0.6,0.1,0.9l-0.1,0.7h-1.1l0.1-0.7c0-0.2,0-0.3,0-0.5
	c0-0.2-0.1-0.3-0.2-0.4c-0.1-0.1-0.2-0.2-0.4-0.3c-0.1-0.1-0.3-0.1-0.5-0.1c-0.2,0-0.3,0-0.5,0.1c-0.2,0.1-0.3,0.2-0.4,0.3
	c-0.1,0.1-0.2,0.2-0.3,0.4c-0.1,0.2-0.1,0.3-0.2,0.5l-0.6,4.2c0,0.3,0,0.6,0.2,0.9c0.2,0.2,0.5,0.4,0.8,0.4c0.2,0,0.3,0,0.5-0.1
	c0.2-0.1,0.3-0.1,0.4-0.3c0.1-0.1,0.2-0.2,0.3-0.4c0.1-0.1,0.1-0.3,0.2-0.5l0.1-0.7h1.1L108.3,98.4z"/>
<path style="fill=:#03fc7f;" d="M116,98.4c0,0.3-0.1,0.6-0.3,0.9c-0.2,0.3-0.4,0.5-0.6,0.7c-0.2,0.2-0.5,0.4-0.8,0.5c-0.3,0.1-0.6,0.2-0.9,0.2
	c-0.3,0-0.6-0.1-0.9-0.2c-0.3-0.1-0.5-0.3-0.6-0.5c-0.2-0.2-0.3-0.4-0.4-0.7c-0.1-0.3-0.1-0.6-0.1-0.9l0.6-4.2
	c0-0.3,0.1-0.6,0.3-0.9c0.2-0.3,0.4-0.5,0.6-0.7c0.2-0.2,0.5-0.4,0.8-0.5c0.3-0.1,0.6-0.2,0.9-0.2c0.3,0,0.6,0.1,0.9,0.2
	c0.3,0.1,0.5,0.3,0.7,0.5c0.2,0.2,0.3,0.4,0.4,0.7c0.1,0.3,0.1,0.6,0.1,0.9L116,98.4z M115.5,94.1c0-0.3,0-0.6-0.2-0.9
	c-0.2-0.2-0.5-0.4-0.8-0.4c-0.2,0-0.3,0-0.5,0.1c-0.2,0.1-0.3,0.2-0.4,0.3c-0.1,0.1-0.2,0.2-0.3,0.4c-0.1,0.2-0.1,0.3-0.2,0.5
	l-0.6,4.2c0,0.2,0,0.3,0,0.5c0,0.1,0.1,0.3,0.2,0.4c0.1,0.1,0.2,0.2,0.4,0.3c0.1,0.1,0.3,0.1,0.5,0.1c0.2,0,0.3,0,0.5-0.1
	c0.2-0.1,0.3-0.1,0.4-0.3c0.1-0.1,0.2-0.2,0.3-0.4c0.1-0.1,0.1-0.3,0.2-0.5L115.5,94.1z"/>
<path style="fill=:#03fc7f;" d="M123.6,98.4c0,0.3-0.1,0.6-0.3,0.9c-0.2,0.3-0.4,0.5-0.6,0.7c-0.2,0.2-0.5,0.4-0.8,0.5c-0.3,0.1-0.6,0.2-0.9,0.2
	c-0.3,0-0.6-0.1-0.9-0.2c-0.3-0.1-0.5-0.3-0.6-0.5c-0.2-0.2-0.3-0.4-0.4-0.7c-0.1-0.3-0.1-0.6-0.1-0.9l0.6-4.2
	c0-0.3,0.1-0.6,0.3-0.9c0.2-0.3,0.3-0.5,0.6-0.7c0.2-0.2,0.5-0.4,0.8-0.5c0.3-0.1,0.6-0.2,0.9-0.2c0.3,0,0.6,0.1,0.9,0.2
	c0.3,0.1,0.5,0.3,0.6,0.5c0.2,0.2,0.3,0.4,0.4,0.7c0.1,0.3,0.1,0.6,0.1,0.9l-0.1,0.7H123l0.1-0.7c0-0.2,0-0.3,0-0.5
	c0-0.2-0.1-0.3-0.2-0.4c-0.1-0.1-0.2-0.2-0.4-0.3c-0.1-0.1-0.3-0.1-0.5-0.1c-0.2,0-0.3,0-0.5,0.1c-0.2,0.1-0.3,0.2-0.4,0.3
	s-0.2,0.2-0.3,0.4c-0.1,0.2-0.1,0.3-0.2,0.5l-0.6,4.2c0,0.3,0,0.6,0.2,0.9c0.2,0.2,0.5,0.4,0.8,0.4c0.2,0,0.3,0,0.5-0.1
	c0.2-0.1,0.3-0.1,0.4-0.3c0.1-0.1,0.2-0.2,0.3-0.4c0.1-0.1,0.1-0.3,0.2-0.5l0.1-0.7h1.1L123.6,98.4z"/>
<polygon points="127.4,100.6 126.4,100.6 127.6,91.9 128.6,91.9 "/>
<polygon points="134.8,100.6 133.8,100.6 132.5,95.1 131.7,100.6 130.6,100.6 131.9,91.9 132.8,91.9 134.2,97.4 134.9,91.9 
	136,91.9 "/>
<path style="fill=:#03fc7f;" d="M141.4,91.9c0.3,0,0.6,0.1,0.9,0.2c0.3,0.1,0.5,0.3,0.7,0.5c0.2,0.2,0.3,0.4,0.4,0.7c0.1,0.3,0.1,0.6,0.1,0.9l-0.9,6.5h-1.1
	l0.3-2.3h-2.4l-0.3,2.3h-1l0.9-6.5c0-0.3,0.1-0.6,0.3-0.9c0.2-0.3,0.4-0.5,0.6-0.7c0.2-0.2,0.5-0.4,0.8-0.5
	C140.8,91.9,141.1,91.9,141.4,91.9 M139.4,97.3h2.4l0.4-3.1c0-0.3,0-0.6-0.2-0.9c-0.2-0.2-0.5-0.4-0.8-0.4c-0.2,0-0.3,0-0.5,0.1
	c-0.2,0.1-0.3,0.2-0.4,0.3c-0.1,0.1-0.2,0.2-0.3,0.4c-0.1,0.2-0.1,0.3-0.2,0.5L139.4,97.3z"/>
<path style="fill=:#03fc7f;" d="M206.1,39.8C206.1,39.7,206.1,39.3,206.1,39.8c0-0.2,0.1-0.4,0.1-0.5c0.1-0.2,0.1-0.5,0.2-0.7c0-0.1,0.1-0.3,0.2-0.4
	c-0.1,0.3,0.1-0.1,0.1-0.1c0.1-0.3,0.3-0.5,0.4-0.8c0.1-0.2,0.3-0.5,0.5-0.7c0.2-0.2-0.2,0.3,0.1-0.1c0.1-0.1,0.2-0.2,0.3-0.4
	c0.2-0.2,0.4-0.4,0.5-0.6c0.1-0.1,0.2-0.2,0.3-0.3c0,0,0.5-0.4,0.3-0.2c0.5-0.3,0.9-0.6,1.4-0.9c0.1,0,0.3-0.1,0,0
	c0.1-0.1,0.3-0.1,0.4-0.2c0.3-0.1,0.6-0.2,0.8-0.2c0.4-0.1-0.3,0,0.1,0c0.1,0,0.3,0,0.4,0c0.1,0,0.8,0.1,0.4,0
	c0.3,0.1,0.6,0.1,0.8,0.2c0.3,0.1,0.1,0,0,0c0.2,0.1,0.4,0.2,0.5,0.3c0.1,0.1,0.2,0.2,0.4,0.2c-0.3-0.2,0,0,0.1,0.1
	c0.2,0.2,0.4,0.4,0.5,0.6c-0.2-0.3,0.1,0.2,0.2,0.4c0.1,0.1,0.1,0.2,0.2,0.4c-0.2-0.3,0.1,0.2,0.1,0.2c0.1,0.2,0.1,0.4,0.2,0.7
	c0,0.1,0.1,0.5,0,0.1c0,0.1,0,0.3,0,0.4c0,0.2,0,0.5,0,0.7c0,0.1-0.1,0.5,0,0.1c0,0.1-0.1,0.3-0.1,0.4c-0.1,0.3-0.2,0.5-0.3,0.8
	c0.1-0.3-0.1,0.3-0.2,0.4c-0.1,0.1-0.1,0.2-0.2,0.4c0,0-0.3,0.4-0.1,0.2c-0.2,0.3-0.5,0.5-0.7,0.8c-0.4,0.3,0.2-0.1-0.2,0.2
	c-0.1,0.1-0.2,0.2-0.4,0.2c-0.1,0.1-0.2,0.1-0.4,0.2c-0.4,0.2,0.2-0.1-0.2,0.1c-0.7,0.2-1.2,0.3-1.7,0.4c-0.3,0-0.7,0-1,0
	c-0.2,0-0.4,0-0.5,0c0.3,0-0.1,0-0.2,0c-0.3-0.1-0.7-0.1-1-0.2c-0.1,0-0.2-0.1-0.4-0.1c-0.1,0-0.5-0.2-0.2-0.1
	c-0.3-0.1-0.6-0.3-0.8-0.5c-0.1,0-0.3-0.2-0.1,0c-0.1-0.1-0.3-0.2-0.4-0.4c0,0-0.3-0.3-0.1-0.2c0.1,0.1-0.2-0.3-0.2-0.3
	c-0.2-0.3,0,0.3-0.1-0.1C206.1,40,206,39.4,206.1,39.8c-0.1-0.9-0.7-1.6-1.6-1.6c-0.8,0-1.8,0.8-1.6,1.6c0.2,1.8,1.1,3.2,2.6,4.2
	c1.3,0.9,2.9,1.2,4.4,1.4c3.4,0.3,6.9-1.2,8.4-4.4c1.3-2.8,1-6.3-1.2-8.5c-2.3-2.4-5.8-2.4-8.6-0.9c-3,1.6-5.3,4.8-5.6,8.3
	c-0.1,0.9,0.8,1.6,1.6,1.6C205.4,41.4,206,40.7,206.1,39.8"/>
</svg>
