<?xml version="1.0" encoding="iso-8859-1"?>
<!-- Generator: Adobe Illustrator 22.1.0, SVG Export Plug-In . SVG Version: 6.00 Build 0)  -->
<svg xmlns="http://www.w3.org/2000/svg" xmlns:xlink="http://www.w3.org/1999/xlink" version="1.1" id="Layer_1_1_" x="0px" y="0px" viewBox="0 0 64 64" style="enable-background:new 0 0 64 64;" xml:space="preserve" width="512" height="512">
<g>
	<path d="M60,27h-3.998c-2.734-6.566-8.112-11.855-15.05-14.399c-0.155-0.942-0.587-1.813-1.276-2.502L36.777,7.2   c-0.492-0.492-0.763-1.147-0.763-1.843s0.271-1.351,0.763-1.843l0.938-0.938l-1.414-1.414L35.363,2.1   c-0.87,0.87-1.349,2.027-1.349,3.257s0.479,2.388,1.349,3.257l2.899,2.899c0.485,0.485,0.764,1.157,0.764,1.879   c0,0.686-0.278,1.358-0.764,1.843l1.414,1.414c0.551-0.551,0.924-1.225,1.14-1.961C49.94,18.292,56,27.103,56,37   c0,13.233-10.767,24-24,24S8,50.233,8,37c0-9.63,5.723-18.297,14.58-22.081l-0.786-1.839C15.417,15.805,10.554,20.873,8,27.024V27   H4c-1.654,0-3,1.346-3,3v14c0,1.654,1.346,3,3,3h4.003C11.929,56.387,21.206,63,32,63s20.071-6.613,23.997-16H60   c1.654,0,3-1.346,3-3V30C63,28.346,61.654,27,60,27z M4,45c-0.551,0-1-0.448-1-1V30c0-0.551,0.449-1,1-1h3.269   C6.448,31.542,6,34.232,6,37c0,2.791,0.447,5.478,1.265,8H4z M61,44c0,0.552-0.449,1-1,1h-3.265C57.553,42.478,58,39.791,58,37   c0-2.77-0.439-5.462-1.259-8H60c0.551,0,1,0.449,1,1V44z"/>
	<rect x="37" y="31" width="2" height="2"/>
	<path d="M23,23h-3v1c0,3.86,3.14,7,7,7h3v-1C30,26.14,26.86,23,23,23z M27,29c-2.415,0-4.435-1.721-4.899-4H23   c2.415,0,4.435,1.721,4.899,4H27z"/>
	<path d="M14,42h1c3.86,0,7-3.141,7-7v-3h-1c-3.86,0-7,3.141-7,7V42z M16,39c0-2.415,1.721-4.435,4-4.899V35   c0,2.415-1.721,4.435-4,4.899V39z"/>
	<path d="M22,51c1.654,0,3-1.346,3-3s-1.346-3-3-3s-3,1.346-3,3S20.346,51,22,51z M22,47c0.551,0,1,0.448,1,1s-0.449,1-1,1   s-1-0.448-1-1S21.449,47,22,47z"/>
	<path d="M44,34c0,1.654,1.346,3,3,3s3-1.346,3-3s-1.346-3-3-3S44,32.346,44,34z M47,33c0.551,0,1,0.448,1,1s-0.449,1-1,1   s-1-0.448-1-1S46.449,33,47,33z"/>
	<rect x="29" y="52" width="2" height="2"/>
	<rect x="24" y="34" width="2" height="2"/>
	<rect x="29" y="21" width="2" height="2"/>
	<rect x="39" y="23" width="2" height="2"/>
	<rect x="16" y="29" width="2" height="2"/>
	<rect x="41" y="50" width="2" height="2"/>
	<path d="M24.26,11.65c0.493,0.493,0.764,1.147,0.764,1.88c0,0.696-0.271,1.351-0.763,1.843c-1.015,1.015-2.254,1.967-3.787,2.913   C13.916,22.328,10,29.324,10,37c0,6.104,2.442,11.778,6.877,15.978c4.129,3.91,9.454,6.023,15.108,6.022   c0.415,0,0.831-0.011,1.249-0.034c11.467-0.627,20.587-10.125,20.764-21.622c0.131-8.576-4.802-16.503-12.568-20.198l-0.859,1.806   c7.061,3.36,11.546,10.567,11.427,18.361c-0.16,10.452-8.45,19.087-18.873,19.657c-5.568,0.298-10.844-1.631-14.873-5.444   C14.22,47.708,12,42.55,12,37c0-6.977,3.56-13.336,9.523-17.012c1.667-1.027,3.025-2.075,4.151-3.201   c0.87-0.87,1.349-2.027,1.349-3.293c0-1.23-0.479-2.387-1.349-3.258l-2.899-2.899c-0.492-0.492-0.763-1.147-0.763-1.843   s0.271-1.351,0.763-1.844l0.938-0.938l-1.414-1.414l-0.938,0.938c-0.87,0.871-1.349,2.027-1.349,3.258s0.479,2.388,1.349,3.257   L24.26,11.65z"/>
	<path d="M31.236,11.514C31.729,12.006,32,12.661,32,13.393c0,0.696-0.271,1.351-0.764,1.843l1.414,1.415   c0.87-0.87,1.35-2.027,1.35-3.294c0-1.231-0.479-2.388-1.35-3.257L29.751,7.2c-0.485-0.485-0.764-1.157-0.764-1.843   s0.278-1.358,0.764-1.843l0.938-0.938l-1.415-1.414L28.337,2.1c-0.87,0.87-1.35,2.027-1.35,3.257s0.479,2.387,1.35,3.257   L31.236,11.514z"/>
	<rect x="35" y="18" width="2" height="2"/>
	<path d="M31.025,26.025l1.415,1.414c0.565-0.566,1.554-0.566,2.121,0c0.485,0.485,0.581,1.235,0.231,1.824l0.012,0.007   c-0.359,0.256-0.714,0.519-1.054,0.803l-4.514,3.761C27.18,35.549,26,38.068,26,40.745v0.259C26,45.965,30.036,50,34.996,50   c2.18,0,4.283-0.791,5.924-2.226L47,42.454V39h-3.291l-5.114,3.255c-0.253,0.16-0.544,0.245-0.843,0.245H37.57   c-0.866,0-1.57-0.704-1.57-1.569c0-0.366,0.129-0.724,0.364-1.005L46,28.362V26h-1c-2.814,0-5.57,0.695-8.046,1.97   c-0.11-0.717-0.437-1.403-0.979-1.945C34.653,24.703,32.347,24.703,31.025,26.025z M30.517,35.371l0.064-0.053   c0.961,1.632,2.465,2.814,4.23,3.351c-0.08,0.097-0.145,0.203-0.214,0.308c-2.022-0.052-4.026-0.501-5.885-1.298   C29.14,36.802,29.747,36.013,30.517,35.371z M28,41.004v-0.259c0-0.383,0.041-0.759,0.102-1.13   c1.872,0.778,3.878,1.241,5.902,1.355c0.003,0.266,0.039,0.523,0.098,0.773c-1.852,0.728-3.825,1.149-5.814,1.234   C28.103,42.351,28,41.69,28,41.004z M29.202,44.92c2.023-0.172,4.02-0.653,5.899-1.422c0.233,0.224,0.501,0.407,0.787,0.561   c-0.54,1.242-0.843,2.586-0.874,3.94c-0.006,0-0.012,0.001-0.018,0.001C32.588,48,30.461,46.777,29.202,44.92z M44.291,41H45v0.546   l-3.011,2.635l-0.803-1.204L44.291,41z M39.49,44.039l0.98,1.47l-0.869,0.76c-0.751,0.658-1.63,1.136-2.57,1.422   c0.072-1.109,0.353-2.204,0.844-3.2C38.444,44.471,38.994,44.316,39.49,44.039z M36.242,36.947   c-1.756-0.241-3.283-1.316-4.108-2.924l2.897-2.414c2.446-2.038,5.465-3.274,8.618-3.55L36.242,36.947z"/>
</g>
</svg>
